<svg width="225" height="82" viewBox="0 0 225 82" fill="none" xmlns="http://www.w3.org/2000/svg">
<mask id="mask0_801_56" style="mask-type:luminance" maskUnits="userSpaceOnUse" x="96" y="11" width="112" height="59">
<path d="M96 11.5677H208V69.6302H96V11.5677Z" fill="white"/>
</mask>
<g mask="url(#mask0_801_56)">
<mask id="mask1_801_56" style="mask-type:luminance" maskUnits="userSpaceOnUse" x="96" y="11" width="112" height="59">
<path d="M138.573 11.5677H199.891C202.745 11.5677 205.38 13.0989 206.792 15.5781C208.203 18.0573 208.177 21.0989 206.724 23.5521L186.531 57.6458C182.135 65.0781 174.141 69.6302 165.51 69.6302H104.187C101.339 69.6302 98.7031 68.1041 97.2916 65.625C95.8802 63.1458 95.9062 60.1041 97.3593 57.6458L117.547 23.5521C121.948 16.125 129.937 11.5677 138.573 11.5677Z" fill="white"/>
</mask>
<g mask="url(#mask1_801_56)">
<path d="M90.2603 11.5677H213.823V69.6302H90.2603V11.5677Z" fill="black"/>
</g>
</g>
<path d="M24.6256 59.86H15.9172V25.6308H24.6256V59.86Z" fill="black"/>
<path d="M45.8875 33.1099C48.7885 33.1099 51.1218 34.037 52.8875 35.8808C54.6479 37.7141 55.5333 40.1672 55.5333 43.2349V59.8599H47.1166V45.5891C47.1166 44.0474 46.7 42.8339 45.8666 41.9433C45.0333 41.0422 43.8979 40.5891 42.4708 40.5891C40.9708 40.5891 39.7416 41.0839 38.7833 42.0683C37.825 43.0422 37.2625 44.3287 37.0958 45.9224V59.8599H28.6375V33.5058H37.0958V37.8183C38.9552 34.7505 41.8875 33.1828 45.8875 33.1099Z" fill="black"/>
<path d="M70.5909 33.1099C74.2003 33.1099 77.0076 33.9537 79.0076 35.6308C81.018 37.313 82.0388 39.6516 82.0701 42.6516V59.8599H73.8201V56.8183C72.0805 59.1099 69.393 60.2558 65.7576 60.2558C62.9763 60.2558 60.768 59.4953 59.1326 57.9641C57.5076 56.4224 56.6951 54.4328 56.6951 51.9849C56.6951 49.4745 57.5597 47.5266 59.2992 46.1516C61.0492 44.7662 63.5544 44.0578 66.8201 44.0266H73.7576V43.6308C73.7576 42.3287 73.3253 41.3078 72.4659 40.5683C71.6013 39.8339 70.3253 39.4641 68.6326 39.4641C66.2576 39.4641 63.6326 40.2037 60.7576 41.6724L58.3617 36.0891C62.6378 34.1047 66.7159 33.1099 70.5909 33.1099ZM68.3409 54.5266C69.6742 54.5266 70.8461 54.1933 71.8617 53.5266C72.8722 52.8599 73.5076 51.9849 73.7576 50.9016V48.5683H68.4451C65.9034 48.5683 64.6326 49.5162 64.6326 51.4016C64.6326 52.3756 64.9503 53.1412 65.5909 53.6933C66.2419 54.2506 67.1586 54.5266 68.3409 54.5266Z" fill="black"/>
<path d="M86.35 22.7349C87.1833 21.9016 88.2511 21.4849 89.5583 21.4849C90.8604 21.4849 91.9333 21.9016 92.7667 22.7349C93.6 23.5578 94.0167 24.6203 94.0167 25.9224C94.0167 27.2297 93.6 28.3078 92.7667 29.1516C91.9333 30.0005 90.8604 30.4224 89.5583 30.4224C88.2511 30.4224 87.1833 30.0005 86.35 29.1516C85.5271 28.3078 85.1208 27.2297 85.1208 25.9224C85.1208 24.6203 85.5271 23.5578 86.35 22.7349ZM93.725 59.8599H85.3083V33.5058H93.725V59.8599Z" fill="black"/>
<path d="M134.203 49.2325L131.369 52.2116V59.3991H122.911V23.1283H131.369V42.295L140.057 33.045H149.64L139.974 43.17L149.953 59.3991H139.911L134.203 49.2325Z" fill="white"/>
<path d="M162.215 49.2325L159.381 52.2116V59.3991H150.923V23.1283H159.381V42.295L168.069 33.045H177.652L167.986 43.17L177.965 59.3991H167.923L162.215 49.2325Z" fill="white"/>
<path d="M195.419 52.7533C196.169 52.0033 197.148 51.6283 198.356 51.6283C199.565 51.6283 200.549 52.0033 201.315 52.7533C202.075 53.5033 202.46 54.4825 202.46 55.6908C202.46 56.8887 202.075 57.8731 201.315 58.6491C200.549 59.4095 199.565 59.795 198.356 59.795C197.148 59.795 196.169 59.4095 195.419 58.6491C194.669 57.8731 194.294 56.8887 194.294 55.6908C194.294 54.4825 194.669 53.5033 195.419 52.7533Z" fill="black"/>
</svg>
